<svg xmlns="http://www.w3.org/2000/svg" xmlns:xlink="http://www.w3.org/1999/xlink" width="1920" zoomAndPan="magnify" viewBox="0 0 1440 809.999993" height="1080" preserveAspectRatio="xMidYMid meet" version="1.0"><defs><g/><clipPath id="4ae8c71dec"><rect x="0" width="1421" y="0" height="310"/></clipPath></defs><g transform="matrix(1, 0, 0, 1, 12, 263)"><g clip-path="url(#4ae8c71dec)"><g fill="#636363" fill-opacity="1"><g transform="translate(0.247863, 249.796561)"><g><path d="M 80.75 -90.484375 L 156.375 0 L 125.359375 0 L 64.59375 -75.625 L 47.6875 -57.421875 L 47.6875 0 L 25.640625 0 L 25.640625 -176.875 L 47.6875 -176.875 L 47.6875 -82.796875 L 135.09375 -176.875 L 160.984375 -176.875 Z M 80.75 -90.484375 "/></g></g></g><g fill="#636363" fill-opacity="1"><g transform="translate(138.157642, 249.796561)"><g><path d="M 143.296875 -17.9375 L 143.296875 0 L 25.640625 0 L 25.640625 -176.875 L 47.6875 -176.875 L 47.6875 -17.9375 Z M 143.296875 -17.9375 "/></g></g></g><g fill="#636363" fill-opacity="1"><g transform="translate(267.351938, 249.796561)"><g><path d="M 116.890625 -62.546875 L 51.78125 -62.546875 L 31.015625 0 L 7.4375 0 L 71 -176.875 L 100.75 -176.875 L 161.75 0 L 137.90625 0 Z M 57.9375 -80.484375 L 111 -80.484375 L 85.359375 -159.453125 Z M 57.9375 -80.484375 "/></g></g></g><g fill="#636363" fill-opacity="1"><g transform="translate(412.951858, 249.796561)"><g><path d="M 142.015625 -46.390625 C 143.035156 -34.941406 144.359375 -25.539062 145.984375 -18.1875 C 147.609375 -10.84375 150.21875 -4.78125 153.8125 0 L 129.453125 0 C 127.054688 -5.632812 125.175781 -11.695312 123.8125 -18.1875 C 122.445312 -24.6875 121.164062 -33.40625 119.96875 -44.34375 C 118.945312 -53.40625 116.46875 -60.753906 112.53125 -66.390625 C 108.601562 -72.035156 102.28125 -75.195312 93.5625 -75.875 C 91.507812 -76.050781 89.414062 -76.140625 87.28125 -76.140625 C 85.144531 -76.140625 83.050781 -76.140625 81 -76.140625 L 47.6875 -76.140625 L 47.6875 0 L 25.640625 0 L 25.640625 -176.875 L 83.5625 -176.875 C 88.007812 -176.875 91.984375 -176.832031 95.484375 -176.75 C 98.992188 -176.664062 102.710938 -176.367188 106.640625 -175.859375 C 119.453125 -174.140625 130.003906 -169.5625 138.296875 -162.125 C 146.585938 -154.695312 150.734375 -143.550781 150.734375 -128.6875 C 150.734375 -121 149.238281 -114.332031 146.25 -108.6875 C 143.257812 -103.050781 139.367188 -98.4375 134.578125 -94.84375 C 129.796875 -91.257812 124.671875 -88.613281 119.203125 -86.90625 C 126.378906 -83.65625 131.800781 -78.3125 135.46875 -70.875 C 139.144531 -63.445312 141.328125 -55.285156 142.015625 -46.390625 Z M 47.6875 -94.078125 L 81.515625 -94.078125 C 85.441406 -94.078125 88.6875 -94.117188 91.25 -94.203125 C 93.820312 -94.285156 96.300781 -94.414062 98.6875 -94.59375 C 106.894531 -95.445312 113.6875 -98.519531 119.0625 -103.8125 C 124.445312 -109.113281 127.140625 -116.722656 127.140625 -126.640625 C 127.140625 -136.546875 124.875 -143.929688 120.34375 -148.796875 C 115.820312 -153.671875 109.457031 -156.707031 101.25 -157.90625 C 96.976562 -158.59375 91.082031 -158.9375 83.5625 -158.9375 L 47.6875 -158.9375 Z M 47.6875 -94.078125 "/></g></g></g><g fill="#636363" fill-opacity="1"><g transform="translate(553.424991, 249.796561)"><g><path d="M 102.28125 -85.359375 L 165.59375 -85.359375 L 165.59375 0 L 146.109375 0 L 146.109375 -30.765625 L 138.171875 -14.359375 C 133.210938 -8.710938 126.84375 -4.304688 119.0625 -1.140625 C 111.289062 2.015625 102.363281 3.59375 92.28125 3.59375 C 75.195312 3.59375 60.671875 -0.421875 48.703125 -8.453125 C 36.742188 -16.484375 27.644531 -27.378906 21.40625 -41.140625 C 15.164062 -54.898438 12.046875 -70.410156 12.046875 -87.671875 C 12.046875 -105.609375 15.503906 -121.582031 22.421875 -135.59375 C 29.347656 -149.613281 39.09375 -160.597656 51.65625 -168.546875 C 64.21875 -176.492188 78.867188 -180.46875 95.609375 -180.46875 C 110.648438 -180.46875 123.296875 -177.859375 133.546875 -172.640625 C 143.804688 -167.429688 151.753906 -160.335938 157.390625 -151.359375 C 163.035156 -142.390625 166.457031 -132.097656 167.65625 -120.484375 L 167.90625 -117.921875 L 145.859375 -117.921875 L 145.34375 -120.484375 C 142.78125 -133.128906 137.441406 -143.378906 129.328125 -151.234375 C 121.210938 -159.097656 109.804688 -163.03125 95.109375 -163.03125 C 83.140625 -163.03125 72.753906 -159.828125 63.953125 -153.421875 C 55.148438 -147.015625 48.398438 -138.210938 43.703125 -127.015625 C 39.003906 -115.828125 36.65625 -103.050781 36.65625 -88.6875 C 36.65625 -74.164062 38.960938 -61.265625 43.578125 -49.984375 C 48.191406 -38.703125 54.769531 -29.859375 63.3125 -23.453125 C 71.863281 -17.046875 81.945312 -13.84375 93.5625 -13.84375 C 103.132812 -13.84375 111.679688 -16.101562 119.203125 -20.625 C 126.722656 -25.15625 132.660156 -31.476562 137.015625 -39.59375 C 141.367188 -47.71875 143.546875 -56.992188 143.546875 -67.421875 L 102.28125 -67.421875 Z M 102.28125 -85.359375 "/></g></g></g><g fill="#636363" fill-opacity="1"><g transform="translate(717.224908, 249.796561)"><g><path d="M 143.296875 -17.9375 L 143.296875 0 L 25.640625 0 L 25.640625 -176.875 L 140.734375 -176.875 L 140.734375 -158.9375 L 47.6875 -158.9375 L 47.6875 -97.40625 L 133.046875 -97.40625 L 133.046875 -79.46875 L 47.6875 -79.46875 L 47.6875 -17.9375 Z M 143.296875 -17.9375 "/></g></g></g><g fill="#636363" fill-opacity="1"><g transform="translate(849.495255, 249.796561)"><g><path d="M 167.140625 -176.875 L 167.140625 0 L 145.09375 0 L 145.09375 -77.421875 L 47.6875 -77.421875 L 47.6875 0 L 25.640625 0 L 25.640625 -176.875 L 47.6875 -176.875 L 47.6875 -95.875 L 145.09375 -95.875 L 145.09375 -176.875 Z M 167.140625 -176.875 "/></g></g></g><g fill="#636363" fill-opacity="1"><g transform="translate(1018.421886, 249.796561)"><g><path d="M 116.890625 -62.546875 L 51.78125 -62.546875 L 31.015625 0 L 7.4375 0 L 71 -176.875 L 100.75 -176.875 L 161.75 0 L 137.90625 0 Z M 57.9375 -80.484375 L 111 -80.484375 L 85.359375 -159.453125 Z M 57.9375 -80.484375 "/></g></g></g><g fill="#636363" fill-opacity="1"><g transform="translate(1164.021888, 249.796561)"><g><path d="M 143.296875 -17.9375 L 143.296875 0 L 25.640625 0 L 25.640625 -176.875 L 47.6875 -176.875 L 47.6875 -17.9375 Z M 143.296875 -17.9375 "/></g></g></g><g fill="#636363" fill-opacity="1"><g transform="translate(1258.866839, 249.796561)"><g><path d="M 156.875 -158.9375 L 93.828125 -158.9375 L 93.828125 0 L 71.78125 0 L 71.78125 -158.9375 L 8.71875 -158.9375 L 8.71875 -176.875 L 156.875 -176.875 Z M 156.875 -158.9375 "/></g></g></g></g></g></svg>